<svg id="Layer_1" data-name="Layer 1" xmlns="http://www.w3.org/2000/svg" viewBox="0 0 24 24"><defs><style>.cls-1{fill:none;}.cls-2{fill:#f2f2f2;}</style></defs><title>Artboard 1</title><g id="Layer_56" data-name="Layer 56"><rect class="cls-1" width="24" height="24"/><g id="Bounding_Boxes" data-name="Bounding Boxes"><path class="cls-1" d="M0,0H24V24H0Z"/></g><rect class="cls-1" width="24" height="24"/></g><g id="Layer_55" data-name="Layer 55"><g id="Rounded"><path class="cls-2" d="M12,2A10,10,0,1,0,22,12,10,10,0,0,0,12,2ZM11,19.93A8,8,0,0,1,4,12a7.75,7.75,0,0,1,.21-1.79L9,15v1a2,2,0,0,0,2,2Zm6.9-2.54A2,2,0,0,0,16,16H15V13a1,1,0,0,0-1-1H8V10h2a1,1,0,0,0,1-1V7h2a2,2,0,0,0,2-2V4.59a8,8,0,0,1,2.9,12.8Z"/></g></g></svg>