<svg id="Layer_1" data-name="Layer 1" xmlns="http://www.w3.org/2000/svg" viewBox="0 0 24 24"><defs><style>.cls-1{fill:none;}.cls-2{fill:#f2f2f2;}</style></defs><title>Artboard 1</title><g id="Layer_56" data-name="Layer 56"><rect class="cls-1" width="24" height="24"/><rect class="cls-1" width="24" height="24"/></g><g id="Layer_55" data-name="Layer 55"><g id="Rounded"><path class="cls-2" d="M18.43,14.91l-2.26-.26a1.79,1.79,0,0,0-1.46.51L13.07,16.8A13.33,13.33,0,0,1,7.2,10.93L8.85,9.28a1.79,1.79,0,0,0,.51-1.46L9.1,5.58A1.79,1.79,0,0,0,7.33,4H5.78A1.76,1.76,0,0,0,4,5.76v.08A15.16,15.16,0,0,0,18.16,20,1.77,1.77,0,0,0,20,18.3V16.67A1.76,1.76,0,0,0,18.43,14.91Z"/></g></g></svg>